<?xml version="1.0" standalone="no"?>
<!DOCTYPE svg PUBLIC "-//W3C//DTD SVG 20010904//EN"
 "http://www.w3.org/TR/2001/REC-SVG-20010904/DTD/svg10.dtd">
<svg version="1.0" xmlns="http://www.w3.org/2000/svg"
 width="300.000000pt" height="102.000000pt" viewBox="0 0 300.000000 102.000000"
 preserveAspectRatio="xMidYMid meet">
<metadata>
Created by potrace 1.10, written by Peter Selinger 2001-2011
</metadata>
<g transform="translate(0.000000,102.000000) scale(0.100000,-0.100000)"
fill="#000000" stroke="none">
<path d="M717 823 c-3 -16 -2 -32 2 -36 4 -4 8 8 9 28 2 42 -4 46 -11 8z"/>
<path d="M811 808 c0 -9 -4 -25 -7 -35 -5 -14 -4 -15 5 -7 7 7 11 22 8 35 -2
13 -5 16 -6 7z"/>
<path d="M1100 690 l0 -120 30 0 c28 0 30 2 30 40 0 36 3 40 25 40 18 0 32
-11 50 -40 20 -32 31 -40 55 -40 35 0 37 11 10 55 -20 32 -20 32 0 50 14 13
20 31 20 60 0 64 -18 75 -128 75 l-92 0 0 -120z m160 40 c0 -29 -1 -30 -50
-30 -49 0 -50 1 -50 30 0 29 1 30 50 30 49 0 50 -1 50 -30z"/>
<path d="M1368 708 c4 -134 8 -138 119 -138 82 0 83 0 83 25 0 24 -2 25 -70
25 -67 0 -70 1 -70 24 0 23 2 24 60 19 l60 -6 0 33 0 32 -60 -4 c-57 -4 -60
-3 -60 19 0 22 4 23 70 23 68 0 70 1 70 25 l0 25 -102 0 -103 0 3 -102z"/>
<path d="M1637 792 c-26 -28 -24 -182 1 -205 27 -25 153 -24 175 1 27 30 22
52 -13 52 -16 0 -30 -4 -30 -10 0 -5 -20 -10 -45 -10 l-45 0 0 70 0 70 45 0
c25 0 45 -4 45 -10 0 -5 14 -10 30 -10 35 0 41 27 12 53 -27 25 -153 24 -175
-1z"/>
<path d="M1870 785 c0 -14 5 -25 10 -25 6 0 10 -30 10 -70 0 -40 -4 -70 -10
-70 -5 0 -10 -11 -10 -25 0 -23 3 -25 50 -25 47 0 50 2 50 25 0 14 -4 25 -10
25 -6 0 -10 30 -10 70 0 40 4 70 10 70 6 0 10 11 10 25 0 23 -3 25 -50 25 -47
0 -50 -2 -50 -25z"/>
<path d="M2010 690 l0 -120 33 0 c32 0 33 1 29 35 l-4 35 64 0 c36 0 69 5 76
12 7 7 12 37 12 68 0 80 -13 90 -123 90 l-87 0 0 -120z m150 35 c0 -35 0 -35
-45 -35 -45 0 -45 0 -45 35 0 35 0 35 45 35 45 0 45 0 45 -35z"/>
<path d="M2270 707 c0 -133 3 -137 123 -137 86 0 87 0 87 25 0 24 -2 25 -76
25 -72 0 -75 1 -72 23 3 21 7 22 66 19 l62 -4 0 32 0 32 -62 -4 c-59 -3 -63
-2 -66 20 -3 21 0 22 72 22 74 0 76 1 76 25 l0 25 -105 0 -105 0 0 -103z"/>
<path d="M762 750 c0 -19 2 -27 5 -17 2 9 2 25 0 35 -3 9 -5 1 -5 -18z"/>
<path d="M642 681 c-57 -20 -77 -34 -77 -54 0 -6 -13 -14 -30 -17 -54 -9 -38
-69 19 -71 32 -1 89 -84 82 -118 l-6 -26 15 28 c16 28 7 67 -16 67 -6 0 -8 4
-4 9 3 5 -4 16 -15 24 -11 7 -17 17 -14 20 12 12 -17 35 -36 30 -11 -3 -20 0
-20 6 0 6 -5 11 -11 11 -6 0 -9 -7 -5 -15 3 -8 1 -15 -4 -15 -6 0 -10 10 -10
21 0 16 5 20 18 16 50 -14 47 -15 51 28 1 17 31 21 31 4 0 -5 5 -7 10 -4 6 3
10 2 10 -4 0 -5 -11 -11 -25 -13 -17 -2 -22 -7 -16 -16 6 -9 14 -7 33 11 13
13 30 21 37 19 14 -5 81 28 81 40 0 10 -31 -2 -53 -20 -9 -8 -20 -12 -24 -9
-3 4 0 7 7 7 17 0 4 13 -15 16 -8 1 -15 -2 -15 -7 0 -4 -7 -6 -15 -2 -20 7
-12 16 18 19 12 1 22 3 22 4 0 3 51 12 75 14 15 0 24 -4 23 -11 -3 -15 23 -17
32 -3 7 12 25 13 25 2 0 -5 -9 -18 -20 -30 -22 -24 -25 -32 -10 -32 18 0 50
39 44 55 -8 20 10 19 26 0 11 -13 9 -20 -13 -43 -15 -15 -36 -28 -48 -29 -25
-2 -47 -19 -27 -21 38 -3 69 -10 76 -16 4 -5 -13 -5 -38 -2 -33 5 -41 4 -30
-3 9 -7 10 -11 3 -11 -6 0 -15 5 -19 11 -3 6 -20 9 -38 6 -17 -3 -25 -3 -18 0
7 2 17 14 23 25 8 15 8 19 0 14 -6 -4 -11 -3 -11 2 0 15 30 23 30 9 0 -7 5 -4
11 6 15 25 -3 44 -21 22 -7 -8 -21 -15 -31 -15 -21 0 -26 -16 -6 -23 16 -6 -1
-23 -33 -31 -21 -6 -22 -5 -7 4 9 6 17 18 17 27 0 14 -2 14 -20 -2 -10 -9 -26
-15 -35 -12 -9 4 -15 1 -15 -9 0 -11 6 -14 16 -10 8 3 12 2 9 -3 -7 -12 78
-26 100 -17 10 4 14 2 9 -5 -9 -16 92 -1 130 18 20 11 31 12 39 4 8 -8 8 -11
-1 -11 -6 0 -9 -7 -6 -15 4 -10 0 -13 -15 -10 -12 2 -19 0 -16 -4 3 -5 -2 -12
-11 -15 -8 -3 -13 -10 -9 -15 3 -5 1 -12 -5 -16 -6 -4 -8 -11 -5 -16 4 -5 0
-9 -9 -9 -8 0 -16 -6 -18 -12 -5 -15 -112 -18 -139 -5 -14 7 -21 -3 -39 -58
-12 -36 -24 -64 -27 -61 -3 3 0 19 6 37 6 18 9 34 7 36 -8 8 -28 -68 -22 -83
10 -25 23 -7 46 61 19 57 24 64 40 55 24 -13 91 -13 125 0 20 8 27 7 31 -5 4
-8 10 -12 15 -9 5 3 14 -7 19 -21 14 -37 12 -44 -5 -15 -22 38 -18 15 5 -30
20 -40 40 -53 40 -26 0 8 -12 42 -27 76 -21 50 -24 65 -14 79 6 9 19 29 29 44
9 15 27 30 39 33 49 13 67 64 22 64 -10 0 -19 7 -19 15 0 8 -20 26 -45 41 -62
36 -184 43 -263 15z m292 -67 c-1 -15 4 -24 17 -27 19 -5 27 -27 10 -27 -17 0
-41 31 -35 43 4 7 -3 2 -15 -11 -12 -12 -26 -20 -32 -17 -5 4 -9 1 -9 -4 0 -6
-5 -11 -11 -11 -6 0 -8 7 -5 16 4 12 2 15 -9 10 -8 -3 -15 -1 -15 4 0 6 5 10
11 10 7 0 18 8 26 18 13 15 13 14 3 -8 -11 -24 -10 -24 4 -6 9 11 16 23 16 28
0 4 11 7 23 6 18 -2 23 -7 21 -24z"/>
<path d="M1100 425 l0 -95 26 0 c26 0 27 1 20 55 -7 63 -1 70 20 20 8 -19 19
-35 24 -35 5 0 19 17 30 38 l20 37 -2 -55 c-2 -50 0 -55 20 -58 21 -3 22 -1
22 92 0 94 0 96 -23 96 -18 0 -28 -10 -42 -40 -10 -22 -21 -40 -25 -40 -4 0
-15 18 -25 40 -14 30 -24 40 -42 40 -23 0 -23 -2 -23 -95z"/>
<path d="M1337 502 c-13 -14 -17 -38 -17 -95 0 -75 1 -77 25 -77 21 0 25 5 25
30 0 28 3 30 36 30 33 0 35 -2 32 -27 -2 -23 1 -29 20 -31 21 -3 22 -1 22 80
0 52 -5 89 -12 96 -20 20 -112 15 -131 -6z m101 -49 c-2 -23 -8 -29 -35 -31
-31 -3 -33 -1 -33 27 0 29 3 31 36 31 33 0 35 -2 32 -27z"/>
<path d="M1520 425 l0 -95 26 0 c26 0 27 1 21 55 -3 30 -4 55 -2 55 2 0 20
-25 40 -55 23 -35 44 -55 56 -55 17 0 19 8 19 95 l0 95 -26 0 c-25 0 -26 -1
-19 -50 4 -27 3 -50 -2 -50 -4 0 -23 23 -41 50 -21 32 -39 50 -52 50 -19 0
-20 -7 -20 -95z"/>
<path d="M1732 508 c-7 -7 -12 -44 -12 -95 0 -82 0 -83 26 -83 22 0 25 4 22
28 -3 24 1 27 30 30 30 3 32 1 32 -27 0 -26 4 -31 25 -31 25 0 25 1 25 83 0
51 -5 88 -12 95 -7 7 -37 12 -68 12 -31 0 -61 -5 -68 -12z m98 -59 c0 -28 -2
-30 -32 -27 -28 3 -33 7 -35 31 -2 25 1 27 33 27 31 0 34 -2 34 -31z"/>
<path d="M1932 508 c-7 -7 -12 -41 -12 -83 0 -42 5 -76 12 -83 16 -16 120 -16
136 0 7 7 12 32 12 57 l0 46 -42 0 c-33 0 -43 -4 -46 -17 -3 -14 3 -18 22 -18
19 0 26 -5 26 -20 0 -17 -7 -20 -40 -20 l-40 0 0 55 0 55 39 0 c22 0 43 -4 46
-10 10 -17 35 -11 35 8 0 31 -22 42 -80 42 -31 0 -61 -5 -68 -12z"/>
<path d="M2120 442 c0 -100 11 -112 99 -112 59 0 62 1 59 22 -3 20 -8 22 -55
19 -48 -2 -53 0 -53 18 0 18 6 21 45 21 39 0 45 3 45 21 0 20 -4 21 -45 15
-41 -7 -45 -5 -45 13 0 19 6 21 55 21 48 0 55 2 55 20 0 18 -7 20 -80 20 l-80
0 0 -78z"/>
<path d="M2310 425 c0 -95 0 -95 25 -95 22 0 25 4 25 35 0 28 4 35 19 35 11 0
28 -15 40 -35 13 -22 28 -35 41 -35 24 0 26 17 5 47 -13 18 -13 22 0 33 21 17
19 73 -3 93 -13 12 -37 17 -85 17 l-67 0 0 -95z m120 32 c0 -20 -5 -23 -35
-23 -30 0 -35 3 -35 23 0 20 5 23 35 23 30 0 35 -3 35 -23z"/>
</g>
</svg>
